{
	"patcher" : 	{
		"fileversion" : 1,
		"appversion" : 		{
			"major" : 6,
			"minor" : 1,
			"revision" : 0,
			"architecture" : "x86"
		}
,
		"rect" : [ 37.0, 81.0, 1211.0, 651.0 ],
		"bgcolor" : [ 0.8, 0.8, 0.8, 1.0 ],
		"bglocked" : 0,
		"openinpresentation" : 0,
		"default_fontsize" : 12.0,
		"default_fontface" : 0,
		"default_fontname" : "Anonymous Pro",
		"gridonopen" : 0,
		"gridsize" : [ 15.0, 5.0 ],
		"gridsnaponopen" : 0,
		"statusbarvisible" : 0,
		"toolbarvisible" : 1,
		"boxanimatetime" : 200,
		"imprint" : 0,
		"enablehscroll" : 1,
		"enablevscroll" : 1,
		"devicewidth" : 0.0,
		"description" : "",
		"digest" : "",
		"tags" : "",
		"boxes" : [ 			{
				"box" : 				{
					"id" : "obj-65",
					"maxclass" : "ezdac~",
					"numinlets" : 2,
					"numoutlets" : 0,
					"patching_rect" : [ 390.0, 560.0, 45.0, 45.0 ]
				}

			}
, 			{
				"box" : 				{
					"id" : "obj-64",
					"maxclass" : "meter~",
					"numinlets" : 1,
					"numoutlets" : 1,
					"outlettype" : [ "float" ],
					"patching_rect" : [ 390.0, 480.0, 26.0, 66.0 ]
				}

			}
, 			{
				"box" : 				{
					"id" : "obj-60",
					"maxclass" : "gain~",
					"numinlets" : 2,
					"numoutlets" : 2,
					"outlettype" : [ "signal", "int" ],
					"parameter_enable" : 0,
					"patching_rect" : [ 345.0, 480.0, 30.0, 120.0 ]
				}

			}
, 			{
				"box" : 				{
					"fontname" : "Anonymous Pro",
					"fontsize" : 12.0,
					"id" : "obj-30",
					"maxclass" : "newobj",
					"numinlets" : 1,
					"numoutlets" : 1,
					"outlettype" : [ "bang" ],
					"patching_rect" : [ 525.0, 405.0, 63.0, 18.0 ],
					"text" : "loadbang"
				}

			}
, 			{
				"box" : 				{
					"id" : "obj-27",
					"maxclass" : "button",
					"numinlets" : 1,
					"numoutlets" : 1,
					"outlettype" : [ "bang" ],
					"patching_rect" : [ 465.0, 495.0, 20.0, 20.0 ]
				}

			}
, 			{
				"box" : 				{
					"fontname" : "Anonymous Pro",
					"fontsize" : 12.0,
					"id" : "obj-21",
					"maxclass" : "newobj",
					"numinlets" : 2,
					"numoutlets" : 1,
					"outlettype" : [ "bang" ],
					"patching_rect" : [ 465.0, 420.0, 56.0, 18.0 ],
					"text" : "del 100"
				}

			}
, 			{
				"box" : 				{
					"fontname" : "Anonymous Pro",
					"fontsize" : 12.0,
					"id" : "obj-14",
					"maxclass" : "newobj",
					"numinlets" : 2,
					"numoutlets" : 2,
					"outlettype" : [ "bang", "bang" ],
					"patching_rect" : [ 510.0, 445.0, 56.0, 18.0 ],
					"text" : "onebang"
				}

			}
, 			{
				"box" : 				{
					"fontname" : "Anonymous Pro",
					"fontsize" : 12.0,
					"id" : "obj-8",
					"maxclass" : "newobj",
					"numinlets" : 1,
					"numoutlets" : 1,
					"outlettype" : [ "signal" ],
					"patcher" : 					{
						"fileversion" : 1,
						"appversion" : 						{
							"major" : 6,
							"minor" : 1,
							"revision" : 0,
							"architecture" : "x86"
						}
,
						"rect" : [ 750.0, 168.0, 640.0, 480.0 ],
						"bglocked" : 0,
						"openinpresentation" : 0,
						"default_fontsize" : 12.0,
						"default_fontface" : 0,
						"default_fontname" : "Anonymous Pro",
						"gridonopen" : 0,
						"gridsize" : [ 15.0, 5.0 ],
						"gridsnaponopen" : 0,
						"statusbarvisible" : 2,
						"toolbarvisible" : 1,
						"boxanimatetime" : 200,
						"imprint" : 0,
						"enablehscroll" : 1,
						"enablevscroll" : 1,
						"devicewidth" : 0.0,
						"description" : "",
						"digest" : "",
						"tags" : "",
						"boxes" : [ 							{
								"box" : 								{
									"comment" : "",
									"id" : "obj-28",
									"maxclass" : "outlet",
									"numinlets" : 1,
									"numoutlets" : 0,
									"patching_rect" : [ 75.0, 370.0, 25.0, 25.0 ]
								}

							}
, 							{
								"box" : 								{
									"fontname" : "Arial",
									"fontsize" : 11.595187,
									"id" : "obj-4",
									"maxclass" : "newobj",
									"numinlets" : 1,
									"numoutlets" : 1,
									"outlettype" : [ "signal" ],
									"patching_rect" : [ 144.0, 260.0, 32.0, 19.0 ],
									"text" : "sig~"
								}

							}
, 							{
								"box" : 								{
									"fontname" : "Arial",
									"fontsize" : 11.595187,
									"id" : "obj-5",
									"maxclass" : "newobj",
									"numinlets" : 1,
									"numoutlets" : 1,
									"outlettype" : [ "signal" ],
									"patching_rect" : [ 66.0, 260.0, 32.0, 19.0 ],
									"text" : "sig~"
								}

							}
, 							{
								"box" : 								{
									"bubblesize" : 8,
									"fontsize" : 11.595187,
									"id" : "obj-6",
									"margin" : 4,
									"maxclass" : "preset",
									"numinlets" : 1,
									"numoutlets" : 4,
									"outlettype" : [ "preset", "int", "preset", "int" ],
									"patching_rect" : [ 62.0, 171.0, 46.0, 28.0 ],
									"preset_data" : [ 										{
											"number" : 1,
											"data" : [ 5, "obj-24", "flonum", "float", 5000.0, 5, "obj-21", "flonum", "float", 130.809998, 5, "obj-20", "flonum", "float", 2.8, 4, "obj-14", "function", "clear", 6, "obj-14", "function", "add", 0.0, 6.0, 6, "obj-14", "function", "add", 4999.999512, 0.0, 4, "obj-13", "function", "clear", 6, "obj-13", "function", "add", 0.0, 0.90625, 6, "obj-13", "function", "add", 1000.0, 0.125, 6, "obj-13", "function", "add", 3000.0, 0.015062, 6, "obj-13", "function", "add", 4999.999512, 0.0 ]
										}
, 										{
											"number" : 2,
											"data" : [ 5, "obj-24", "flonum", "float", 5000.0, 5, "obj-21", "flonum", "float", 130.809998, 5, "obj-20", "flonum", "float", 1.005, 4, "obj-14", "function", "clear", 6, "obj-14", "function", "add", 0.0, 7.5, 6, "obj-14", "function", "add", 2706.421875, 1.875, 6, "obj-14", "function", "add", 4999.999512, 0.0, 4, "obj-13", "function", "clear", 6, "obj-13", "function", "add", 0.0, 0.90625, 6, "obj-13", "function", "add", 1000.0, 0.125, 6, "obj-13", "function", "add", 3000.0, 0.015062, 6, "obj-13", "function", "add", 4999.999512, 0.0 ]
										}
, 										{
											"number" : 3,
											"data" : [ 5, "obj-24", "flonum", "float", 400.0, 5, "obj-21", "flonum", "float", 130.809998, 5, "obj-20", "flonum", "float", 0.707, 4, "obj-14", "function", "clear", 6, "obj-14", "function", "add", 0.0, 1.5, 6, "obj-14", "function", "add", 399.999969, 0.0, 4, "obj-13", "function", "clear", 6, "obj-13", "function", "add", 0.0, 0.6875, 6, "obj-13", "function", "add", 40.36697, 0.84375, 6, "obj-13", "function", "add", 99.082565, 0.765625, 6, "obj-13", "function", "add", 161.46788, 0.09375, 6, "obj-13", "function", "add", 399.999969, 0.0 ]
										}
, 										{
											"number" : 4,
											"data" : [ 5, "obj-24", "flonum", "float", 400.0, 5, "obj-21", "flonum", "float", 392.0, 5, "obj-20", "flonum", "float", 1.0, 4, "obj-14", "function", "clear", 6, "obj-14", "function", "add", 0.0, 0.0, 6, "obj-14", "function", "add", 51.376144, 5.25, 6, "obj-14", "function", "add", 80.73394, 4.5, 6, "obj-14", "function", "add", 297.247681, 0.375, 6, "obj-14", "function", "add", 399.999969, 0.0, 4, "obj-13", "function", "clear", 6, "obj-13", "function", "add", 0.0, 0.0, 6, "obj-13", "function", "add", 51.376144, 1.0, 6, "obj-13", "function", "add", 91.743118, 0.734375, 6, "obj-13", "function", "add", 326.605499, 0.6875, 6, "obj-13", "function", "add", 399.999969, 0.0 ]
										}
, 										{
											"number" : 5,
											"data" : [ 5, "obj-24", "flonum", "float", 200.0, 5, "obj-21", "flonum", "float", 1046.599976, 5, "obj-20", "flonum", "float", 1.0, 4, "obj-14", "function", "clear", 6, "obj-14", "function", "add", 0.0, 0.0, 6, "obj-14", "function", "add", 25.688072, 5.25, 6, "obj-14", "function", "add", 40.36697, 4.5, 6, "obj-14", "function", "add", 148.62384, 0.375, 6, "obj-14", "function", "add", 199.999985, 0.0, 4, "obj-13", "function", "clear", 6, "obj-13", "function", "add", 0.0, 0.0, 6, "obj-13", "function", "add", 25.688072, 1.0, 6, "obj-13", "function", "add", 45.871559, 0.734375, 6, "obj-13", "function", "add", 163.30275, 0.6875, 6, "obj-13", "function", "add", 199.999985, 0.0 ]
										}
, 										{
											"number" : 6,
											"data" : [ 5, "obj-24", "flonum", "float", 200.0, 5, "obj-21", "flonum", "float", 1046.599976, 5, "obj-20", "flonum", "float", 1.0, 4, "obj-14", "function", "clear", 6, "obj-14", "function", "add", 0.0, 1.875, 6, "obj-14", "function", "add", 51.376144, 0.375, 6, "obj-14", "function", "add", 199.999985, 0.0, 4, "obj-13", "function", "clear", 6, "obj-13", "function", "add", 0.0, 1.0, 6, "obj-13", "function", "add", 49.541283, 0.125, 6, "obj-13", "function", "add", 135.779816, 0.015625, 6, "obj-13", "function", "add", 199.999985, 0.0 ]
										}
, 										{
											"number" : 7,
											"data" : [ 5, "obj-24", "flonum", "float", 2000.0, 5, "obj-21", "flonum", "float", 392.0, 5, "obj-20", "flonum", "float", 4.0, 4, "obj-14", "function", "clear", 6, "obj-14", "function", "add", 18.348623, 0.0, 6, "obj-14", "function", "add", 477.064209, 0.75, 6, "obj-14", "function", "add", 1633.027466, 0.75, 6, "obj-14", "function", "add", 1999.999878, 0.0, 4, "obj-13", "function", "clear", 6, "obj-13", "function", "add", 18.348623, 0.0, 6, "obj-13", "function", "add", 495.412811, 1.0, 6, "obj-13", "function", "add", 1284.403564, 0.78125, 6, "obj-13", "function", "add", 1688.073364, 0.21875, 6, "obj-13", "function", "add", 1999.999878, 0.0 ]
										}
, 										{
											"number" : 8,
											"data" : [ 5, "obj-24", "flonum", "float", 2000.0, 5, "obj-21", "flonum", "float", 61.400002, 5, "obj-20", "flonum", "float", 2.5, 4, "obj-14", "function", "clear", 6, "obj-14", "function", "add", 0.0, 8.25, 6, "obj-14", "function", "add", 660.550415, 23.25, 6, "obj-14", "function", "add", 1045.87146, 7.875, 6, "obj-14", "function", "add", 1357.798096, 10.875, 6, "obj-14", "function", "add", 1541.284302, 1.875, 6, "obj-14", "function", "add", 1743.119141, 3.0, 6, "obj-14", "function", "add", 1999.999756, 0.0, 4, "obj-13", "function", "clear", 6, "obj-13", "function", "add", 0.0, 0.0, 6, "obj-13", "function", "add", 36.697247, 1.0, 6, "obj-13", "function", "add", 348.62384, 0.703125, 6, "obj-13", "function", "add", 1357.798096, 0.671875, 6, "obj-13", "function", "add", 1761.467773, 0.078125, 6, "obj-13", "function", "add", 1999.999756, 0.0 ]
										}
 ],
									"spacing" : 2
								}

							}
, 							{
								"box" : 								{
									"fontname" : "Arial",
									"fontsize" : 11.595187,
									"frgb" : 0.0,
									"id" : "obj-7",
									"maxclass" : "comment",
									"numinlets" : 1,
									"numoutlets" : 0,
									"patching_rect" : [ 47.0, 152.0, 96.0, 19.0 ],
									"text" : "FM tone settings"
								}

							}
, 							{
								"box" : 								{
									"id" : "obj-8",
									"maxclass" : "button",
									"numinlets" : 1,
									"numoutlets" : 1,
									"outlettype" : [ "bang" ],
									"patching_rect" : [ 114.0, 100.0, 20.0, 20.0 ]
								}

							}
, 							{
								"box" : 								{
									"fontname" : "Arial",
									"fontsize" : 11.595187,
									"frgb" : 0.0,
									"id" : "obj-9",
									"maxclass" : "comment",
									"numinlets" : 1,
									"numoutlets" : 0,
									"patching_rect" : [ 95.0, 77.0, 69.0, 19.0 ],
									"text" : "Play a note"
								}

							}
, 							{
								"box" : 								{
									"fontname" : "Arial",
									"fontsize" : 11.595187,
									"frgb" : 0.0,
									"id" : "obj-10",
									"maxclass" : "comment",
									"numinlets" : 1,
									"numoutlets" : 0,
									"patching_rect" : [ 388.0, 260.0, 62.0, 19.0 ],
									"text" : "Amplitude"
								}

							}
, 							{
								"box" : 								{
									"fontname" : "Arial",
									"fontsize" : 11.595187,
									"frgb" : 0.0,
									"id" : "obj-11",
									"maxclass" : "comment",
									"numinlets" : 1,
									"numoutlets" : 0,
									"patching_rect" : [ 264.0, 260.0, 99.0, 19.0 ],
									"text" : "Modulation Index"
								}

							}
, 							{
								"box" : 								{
									"fontname" : "Arial",
									"fontsize" : 11.595187,
									"frgb" : 0.0,
									"id" : "obj-12",
									"maxclass" : "comment",
									"numinlets" : 1,
									"numoutlets" : 0,
									"patching_rect" : [ 221.0, 77.0, 54.0, 19.0 ],
									"text" : "Duration"
								}

							}
, 							{
								"box" : 								{
									"fontname" : "Arial",
									"fontsize" : 11.595187,
									"id" : "obj-13",
									"maxclass" : "message",
									"numinlets" : 2,
									"numoutlets" : 1,
									"outlettype" : [ "" ],
									"patching_rect" : [ 221.0, 125.0, 80.0, 17.0 ],
									"text" : "setdomain $1"
								}

							}
, 							{
								"box" : 								{
									"addpoints" : [ 0.0, 6.0, 0, 180.935776, 0.75, 0, 180.935776, 0.59375, 0, 346.0, 0.046875, 0 ],
									"bordercolor" : [ 0.0, 0.0, 0.0, 1.0 ],
									"domain" : 346.0,
									"id" : "obj-14",
									"linecolor" : [ 0.333333, 0.333333, 0.333333, 1.0 ],
									"maxclass" : "function",
									"numinlets" : 1,
									"numoutlets" : 4,
									"outlettype" : [ "float", "", "", "bang" ],
									"parameter_enable" : 0,
									"patching_rect" : [ 345.0, 160.0, 121.0, 89.0 ],
									"pointcolor" : [ 0.321569, 0.321569, 0.321569, 1.0 ]
								}

							}
, 							{
								"box" : 								{
									"addpoints" : [ 0.0, 7.5, 0, 187.284393, 1.875, 0, 345.999969, 0.0, 0 ],
									"bordercolor" : [ 0.0, 0.0, 0.0, 1.0 ],
									"domain" : 346.0,
									"id" : "obj-15",
									"linecolor" : [ 0.333333, 0.333333, 0.333333, 1.0 ],
									"maxclass" : "function",
									"numinlets" : 1,
									"numoutlets" : 4,
									"outlettype" : [ "float", "", "", "bang" ],
									"parameter_enable" : 0,
									"patching_rect" : [ 221.0, 160.0, 121.0, 89.0 ],
									"pointcolor" : [ 0.321569, 0.321569, 0.321569, 1.0 ],
									"range" : [ 0.0, 24.0 ]
								}

							}
, 							{
								"box" : 								{
									"fontname" : "Arial",
									"fontsize" : 11.595187,
									"frgb" : 0.0,
									"id" : "obj-16",
									"maxclass" : "comment",
									"numinlets" : 1,
									"numoutlets" : 0,
									"patching_rect" : [ 146.0, 202.0, 72.0, 19.0 ],
									"text" : "Harmonicity"
								}

							}
, 							{
								"box" : 								{
									"fontname" : "Arial",
									"fontsize" : 11.595187,
									"id" : "obj-18",
									"maxclass" : "newobj",
									"numinlets" : 2,
									"numoutlets" : 2,
									"outlettype" : [ "signal", "bang" ],
									"patching_rect" : [ 221.0, 260.0, 35.0, 19.0 ],
									"text" : "line~"
								}

							}
, 							{
								"box" : 								{
									"fontname" : "Arial",
									"fontsize" : 11.595187,
									"id" : "obj-19",
									"maxclass" : "newobj",
									"numinlets" : 2,
									"numoutlets" : 2,
									"outlettype" : [ "signal", "bang" ],
									"patching_rect" : [ 246.0, 292.0, 35.0, 19.0 ],
									"text" : "line~"
								}

							}
, 							{
								"box" : 								{
									"fontname" : "Arial",
									"fontsize" : 11.595187,
									"id" : "obj-20",
									"maxclass" : "newobj",
									"numinlets" : 2,
									"numoutlets" : 1,
									"outlettype" : [ "signal" ],
									"patching_rect" : [ 66.0, 324.0, 32.5, 19.0 ],
									"text" : "*~"
								}

							}
, 							{
								"box" : 								{
									"bgcolor" : [ 0.866667, 0.866667, 0.866667, 1.0 ],
									"fontname" : "Arial",
									"fontsize" : 11.595187,
									"htextcolor" : [ 0.870588, 0.870588, 0.870588, 1.0 ],
									"id" : "obj-21",
									"maxclass" : "flonum",
									"minimum" : 0.0,
									"numinlets" : 1,
									"numoutlets" : 2,
									"outlettype" : [ "float", "bang" ],
									"parameter_enable" : 0,
									"patching_rect" : [ 144.0, 226.0, 59.0, 19.0 ],
									"triscale" : 0.9
								}

							}
, 							{
								"box" : 								{
									"bgcolor" : [ 0.866667, 0.866667, 0.866667, 1.0 ],
									"fontname" : "Arial",
									"fontsize" : 11.595187,
									"htextcolor" : [ 0.870588, 0.870588, 0.870588, 1.0 ],
									"id" : "obj-22",
									"maxclass" : "flonum",
									"minimum" : 0.0,
									"numinlets" : 1,
									"numoutlets" : 2,
									"outlettype" : [ "float", "bang" ],
									"parameter_enable" : 0,
									"patching_rect" : [ 66.0, 226.0, 59.0, 19.0 ],
									"triscale" : 0.9
								}

							}
, 							{
								"box" : 								{
									"fontname" : "Arial",
									"fontsize" : 11.595187,
									"id" : "obj-23",
									"maxclass" : "newobj",
									"numinlets" : 3,
									"numoutlets" : 1,
									"outlettype" : [ "signal" ],
									"patching_rect" : [ 66.0, 292.0, 174.0, 19.0 ],
									"text" : "simpleFM~"
								}

							}
, 							{
								"box" : 								{
									"fontname" : "Arial",
									"fontsize" : 11.595187,
									"frgb" : 0.0,
									"id" : "obj-24",
									"maxclass" : "comment",
									"numinlets" : 1,
									"numoutlets" : 0,
									"patching_rect" : [ 68.0, 202.0, 76.0, 19.0 ],
									"text" : "Carrier Freq."
								}

							}
, 							{
								"box" : 								{
									"bgcolor" : [ 0.866667, 0.866667, 0.866667, 1.0 ],
									"fontname" : "Arial",
									"fontsize" : 11.595187,
									"htextcolor" : [ 0.870588, 0.870588, 0.870588, 1.0 ],
									"id" : "obj-25",
									"maxclass" : "flonum",
									"minimum" : 0.0,
									"numinlets" : 1,
									"numoutlets" : 2,
									"outlettype" : [ "float", "bang" ],
									"parameter_enable" : 0,
									"patching_rect" : [ 221.0, 100.0, 59.0, 19.0 ],
									"triscale" : 0.9
								}

							}
, 							{
								"box" : 								{
									"comment" : "",
									"id" : "obj-1",
									"maxclass" : "inlet",
									"numinlets" : 0,
									"numoutlets" : 1,
									"outlettype" : [ "bang" ],
									"patching_rect" : [ 103.0, 51.0, 25.0, 25.0 ]
								}

							}
 ],
						"lines" : [ 							{
								"patchline" : 								{
									"destination" : [ "obj-8", 0 ],
									"disabled" : 0,
									"hidden" : 0,
									"source" : [ "obj-1", 0 ]
								}

							}
, 							{
								"patchline" : 								{
									"color" : [ 0.0, 0.0, 0.0, 1.0 ],
									"destination" : [ "obj-14", 0 ],
									"disabled" : 0,
									"hidden" : 0,
									"midpoints" : [ 230.5, 148.0, 354.5, 148.0 ],
									"source" : [ "obj-13", 0 ]
								}

							}
, 							{
								"patchline" : 								{
									"color" : [ 0.0, 0.0, 0.0, 1.0 ],
									"destination" : [ "obj-15", 0 ],
									"disabled" : 0,
									"hidden" : 0,
									"source" : [ "obj-13", 0 ]
								}

							}
, 							{
								"patchline" : 								{
									"color" : [ 0.0, 0.0, 0.0, 1.0 ],
									"destination" : [ "obj-19", 0 ],
									"disabled" : 0,
									"hidden" : 0,
									"midpoints" : [ 388.5, 288.0, 255.5, 288.0 ],
									"source" : [ "obj-14", 1 ]
								}

							}
, 							{
								"patchline" : 								{
									"color" : [ 0.0, 0.0, 0.0, 1.0 ],
									"destination" : [ "obj-18", 0 ],
									"disabled" : 0,
									"hidden" : 0,
									"midpoints" : [ 264.5, 251.0, 232.0, 251.0, 232.0, 257.0, 230.5, 257.0 ],
									"source" : [ "obj-15", 1 ]
								}

							}
, 							{
								"patchline" : 								{
									"color" : [ 0.0, 0.0, 0.0, 1.0 ],
									"destination" : [ "obj-23", 2 ],
									"disabled" : 0,
									"hidden" : 0,
									"source" : [ "obj-18", 0 ]
								}

							}
, 							{
								"patchline" : 								{
									"color" : [ 0.0, 0.0, 0.0, 1.0 ],
									"destination" : [ "obj-20", 1 ],
									"disabled" : 0,
									"hidden" : 0,
									"source" : [ "obj-19", 0 ]
								}

							}
, 							{
								"patchline" : 								{
									"destination" : [ "obj-28", 0 ],
									"disabled" : 0,
									"hidden" : 0,
									"source" : [ "obj-20", 0 ]
								}

							}
, 							{
								"patchline" : 								{
									"color" : [ 0.0, 0.0, 0.0, 1.0 ],
									"destination" : [ "obj-4", 0 ],
									"disabled" : 0,
									"hidden" : 0,
									"source" : [ "obj-21", 0 ]
								}

							}
, 							{
								"patchline" : 								{
									"color" : [ 0.0, 0.0, 0.0, 1.0 ],
									"destination" : [ "obj-5", 0 ],
									"disabled" : 0,
									"hidden" : 0,
									"source" : [ "obj-22", 0 ]
								}

							}
, 							{
								"patchline" : 								{
									"color" : [ 0.0, 0.0, 0.0, 1.0 ],
									"destination" : [ "obj-20", 0 ],
									"disabled" : 0,
									"hidden" : 0,
									"source" : [ "obj-23", 0 ]
								}

							}
, 							{
								"patchline" : 								{
									"color" : [ 0.0, 0.0, 0.0, 1.0 ],
									"destination" : [ "obj-13", 0 ],
									"disabled" : 0,
									"hidden" : 0,
									"source" : [ "obj-25", 0 ]
								}

							}
, 							{
								"patchline" : 								{
									"color" : [ 0.0, 0.0, 0.0, 1.0 ],
									"destination" : [ "obj-23", 1 ],
									"disabled" : 0,
									"hidden" : 0,
									"source" : [ "obj-4", 0 ]
								}

							}
, 							{
								"patchline" : 								{
									"color" : [ 0.0, 0.0, 0.0, 1.0 ],
									"destination" : [ "obj-23", 0 ],
									"disabled" : 0,
									"hidden" : 0,
									"source" : [ "obj-5", 0 ]
								}

							}
, 							{
								"patchline" : 								{
									"color" : [ 0.0, 0.0, 0.0, 1.0 ],
									"destination" : [ "obj-14", 0 ],
									"disabled" : 0,
									"hidden" : 0,
									"midpoints" : [ 123.5, 148.0, 354.5, 148.0 ],
									"source" : [ "obj-8", 0 ]
								}

							}
, 							{
								"patchline" : 								{
									"color" : [ 0.0, 0.0, 0.0, 1.0 ],
									"destination" : [ "obj-15", 0 ],
									"disabled" : 0,
									"hidden" : 0,
									"midpoints" : [ 123.5, 148.0, 230.5, 148.0 ],
									"source" : [ "obj-8", 0 ]
								}

							}
 ]
					}
,
					"patching_rect" : [ 330.0, 425.0, 37.0, 18.0 ],
					"saved_object_attributes" : 					{
						"default_fontface" : 0,
						"default_fontname" : "Anonymous Pro",
						"default_fontsize" : 12.0,
						"description" : "",
						"digest" : "",
						"fontface" : 0,
						"fontname" : "Anonymous Pro",
						"fontsize" : 12.0,
						"globalpatchername" : "",
						"tags" : ""
					}
,
					"text" : "p FM"
				}

			}
, 			{
				"box" : 				{
					"id" : "obj-63",
					"maxclass" : "button",
					"numinlets" : 1,
					"numoutlets" : 1,
					"outlettype" : [ "bang" ],
					"patching_rect" : [ 510.0, 595.0, 20.0, 20.0 ]
				}

			}
, 			{
				"box" : 				{
					"fontname" : "Anonymous Pro",
					"fontsize" : 12.0,
					"id" : "obj-61",
					"maxclass" : "flonum",
					"numinlets" : 1,
					"numoutlets" : 2,
					"outlettype" : [ "float", "bang" ],
					"parameter_enable" : 0,
					"patching_rect" : [ 450.0, 605.0, 50.0, 18.0 ]
				}

			}
, 			{
				"box" : 				{
					"fontname" : "Anonymous Pro",
					"fontsize" : 12.0,
					"id" : "obj-59",
					"maxclass" : "newobj",
					"numinlets" : 1,
					"numoutlets" : 1,
					"outlettype" : [ "" ],
					"patching_rect" : [ 450.0, 565.0, 142.0, 18.0 ],
					"text" : "dict.unpack impulse:"
				}

			}
, 			{
				"box" : 				{
					"fontname" : "Anonymous Pro",
					"fontsize" : 12.0,
					"id" : "obj-57",
					"maxclass" : "newobj",
					"numinlets" : 1,
					"numoutlets" : 1,
					"outlettype" : [ "" ],
					"patching_rect" : [ 435.0, 525.0, 148.0, 18.0 ],
					"text" : "dict.unpack BAR_FOO1:"
				}

			}
, 			{
				"box" : 				{
					"fontname" : "Anonymous Pro",
					"fontsize" : 12.0,
					"id" : "obj-55",
					"maxclass" : "newobj",
					"numinlets" : 2,
					"numoutlets" : 2,
					"outlettype" : [ "", "" ],
					"patching_rect" : [ 465.0, 470.0, 115.0, 18.0 ],
					"text" : "route collisions"
				}

			}
, 			{
				"box" : 				{
					"fontname" : "Anonymous Pro",
					"fontsize" : 12.0,
					"id" : "obj-44",
					"maxclass" : "newobj",
					"numinlets" : 1,
					"numoutlets" : 3,
					"outlettype" : [ "", "", "" ],
					"patching_rect" : [ 705.0, 475.0, 102.0, 18.0 ],
					"text" : "jit.phys.hinge"
				}

			}
, 			{
				"box" : 				{
					"attr" : "position1",
					"fontname" : "Anonymous Pro",
					"fontsize" : 12.0,
					"id" : "obj-45",
					"maxclass" : "attrui",
					"numinlets" : 1,
					"numoutlets" : 1,
					"outlettype" : [ "" ],
					"patching_rect" : [ 675.0, 395.0, 210.0, 18.0 ]
				}

			}
, 			{
				"box" : 				{
					"attr" : "position2",
					"fontname" : "Anonymous Pro",
					"fontsize" : 12.0,
					"id" : "obj-46",
					"maxclass" : "attrui",
					"numinlets" : 1,
					"numoutlets" : 1,
					"outlettype" : [ "" ],
					"patching_rect" : [ 735.0, 420.0, 195.0, 18.0 ]
				}

			}
, 			{
				"box" : 				{
					"fontname" : "Anonymous Pro",
					"fontsize" : 12.0,
					"id" : "obj-47",
					"maxclass" : "newobj",
					"numinlets" : 1,
					"numoutlets" : 2,
					"outlettype" : [ "", "" ],
					"patching_rect" : [ 705.0, 515.0, 161.0, 18.0 ],
					"text" : "jit.phys.body @name BAR"
				}

			}
, 			{
				"box" : 				{
					"fontname" : "Anonymous Pro",
					"fontsize" : 12.0,
					"id" : "obj-48",
					"maxclass" : "newobj",
					"numinlets" : 1,
					"numoutlets" : 2,
					"outlettype" : [ "jit_matrix", "" ],
					"patching_rect" : [ 705.0, 550.0, 240.0, 18.0 ],
					"text" : "jit.gl.gridshape @lighting_enable 1"
				}

			}
, 			{
				"box" : 				{
					"fontname" : "Anonymous Pro",
					"fontsize" : 12.0,
					"id" : "obj-41",
					"maxclass" : "newobj",
					"numinlets" : 1,
					"numoutlets" : 3,
					"outlettype" : [ "", "", "" ],
					"patching_rect" : [ 810.0, 250.0, 102.0, 18.0 ],
					"text" : "jit.phys.hinge"
				}

			}
, 			{
				"box" : 				{
					"attr" : "position1",
					"fontname" : "Anonymous Pro",
					"fontsize" : 12.0,
					"id" : "obj-42",
					"maxclass" : "attrui",
					"numinlets" : 1,
					"numoutlets" : 1,
					"outlettype" : [ "" ],
					"patching_rect" : [ 780.0, 170.0, 210.0, 18.0 ]
				}

			}
, 			{
				"box" : 				{
					"attr" : "position2",
					"fontname" : "Anonymous Pro",
					"fontsize" : 12.0,
					"id" : "obj-43",
					"maxclass" : "attrui",
					"numinlets" : 1,
					"numoutlets" : 1,
					"outlettype" : [ "" ],
					"patching_rect" : [ 840.0, 195.0, 195.0, 18.0 ]
				}

			}
, 			{
				"box" : 				{
					"fontname" : "Anonymous Pro",
					"fontsize" : 12.0,
					"id" : "obj-40",
					"maxclass" : "newobj",
					"numinlets" : 1,
					"numoutlets" : 2,
					"outlettype" : [ "", "" ],
					"patching_rect" : [ 810.0, 290.0, 161.0, 18.0 ],
					"text" : "jit.phys.body @name BAZ"
				}

			}
, 			{
				"box" : 				{
					"fontname" : "Anonymous Pro",
					"fontsize" : 12.0,
					"id" : "obj-39",
					"maxclass" : "newobj",
					"numinlets" : 1,
					"numoutlets" : 2,
					"outlettype" : [ "jit_matrix", "" ],
					"patching_rect" : [ 810.0, 325.0, 240.0, 18.0 ],
					"text" : "jit.gl.gridshape @lighting_enable 1"
				}

			}
, 			{
				"box" : 				{
					"fontname" : "Anonymous Pro",
					"fontsize" : 12.0,
					"frgb" : 0.0,
					"id" : "obj-33",
					"maxclass" : "comment",
					"numinlets" : 1,
					"numoutlets" : 0,
					"patching_rect" : [ 645.0, 295.0, 150.0, 18.0 ],
					"text" : "Constraint section"
				}

			}
, 			{
				"box" : 				{
					"fontname" : "Anonymous Pro",
					"fontsize" : 12.0,
					"frgb" : 0.0,
					"id" : "obj-31",
					"maxclass" : "comment",
					"numinlets" : 1,
					"numoutlets" : 0,
					"patching_rect" : [ 345.0, 30.0, 150.0, 18.0 ],
					"text" : "Physics section"
				}

			}
, 			{
				"box" : 				{
					"fontname" : "Anonymous Pro",
					"fontsize" : 12.0,
					"id" : "obj-29",
					"maxclass" : "newobj",
					"numinlets" : 1,
					"numoutlets" : 3,
					"outlettype" : [ "", "", "" ],
					"patching_rect" : [ 780.0, 95.0, 102.0, 18.0 ],
					"text" : "jit.phys.hinge"
				}

			}
, 			{
				"box" : 				{
					"fontname" : "Anonymous Pro",
					"fontsize" : 12.0,
					"frgb" : 0.0,
					"id" : "obj-28",
					"maxclass" : "comment",
					"numinlets" : 1,
					"numoutlets" : 0,
					"patching_rect" : [ 345.0, 340.0, 150.0, 18.0 ],
					"text" : "Pick up the ball"
				}

			}
, 			{
				"box" : 				{
					"fontname" : "Anonymous Pro",
					"fontsize" : 12.0,
					"id" : "obj-25",
					"maxclass" : "newobj",
					"numinlets" : 1,
					"numoutlets" : 2,
					"outlettype" : [ "", "" ],
					"patching_rect" : [ 345.0, 315.0, 109.0, 18.0 ],
					"text" : "jit.phys.picker"
				}

			}
, 			{
				"box" : 				{
					"fontname" : "Anonymous Pro",
					"fontsize" : 12.0,
					"frgb" : 0.0,
					"id" : "obj-24",
					"linecount" : 3,
					"maxclass" : "comment",
					"numinlets" : 1,
					"numoutlets" : 0,
					"patching_rect" : [ 30.0, 585.0, 150.0, 42.0 ],
					"text" : "Attach first to see the fall when phys.world attached"
				}

			}
, 			{
				"box" : 				{
					"fontname" : "Anonymous Pro",
					"fontsize" : 12.0,
					"frgb" : 0.0,
					"id" : "obj-22",
					"linecount" : 3,
					"maxclass" : "comment",
					"numinlets" : 1,
					"numoutlets" : 0,
					"patching_rect" : [ 510.0, 230.0, 75.0, 42.0 ],
					"text" : "Debug the physics objects"
				}

			}
, 			{
				"box" : 				{
					"fontname" : "Anonymous Pro",
					"fontsize" : 12.0,
					"id" : "obj-19",
					"maxclass" : "newobj",
					"numinlets" : 1,
					"numoutlets" : 1,
					"outlettype" : [ "" ],
					"patching_rect" : [ 345.0, 255.0, 109.0, 18.0 ],
					"text" : "jit.gl.physdraw"
				}

			}
, 			{
				"box" : 				{
					"fontname" : "Anonymous Pro",
					"fontsize" : 12.0,
					"id" : "obj-16",
					"maxclass" : "message",
					"numinlets" : 2,
					"numoutlets" : 1,
					"outlettype" : [ "" ],
					"patching_rect" : [ 345.0, 55.0, 43.0, 16.0 ],
					"text" : "reset"
				}

			}
, 			{
				"box" : 				{
					"fontname" : "Anonymous Pro",
					"fontsize" : 12.0,
					"frgb" : 0.0,
					"id" : "obj-12",
					"linecount" : 4,
					"maxclass" : "comment",
					"numinlets" : 1,
					"numoutlets" : 0,
					"patching_rect" : [ 345.0, 170.0, 150.0, 54.0 ],
					"text" : "If phys.body attached, this will cause the body to fall"
				}

			}
, 			{
				"box" : 				{
					"fontname" : "Anonymous Pro",
					"fontsize" : 12.0,
					"id" : "obj-2",
					"maxclass" : "newobj",
					"numinlets" : 1,
					"numoutlets" : 2,
					"outlettype" : [ "", "" ],
					"patching_rect" : [ 345.0, 145.0, 102.0, 18.0 ],
					"text" : "jit.phys.world"
				}

			}
, 			{
				"box" : 				{
					"fontname" : "Anonymous Pro",
					"fontsize" : 12.0,
					"id" : "obj-1",
					"maxclass" : "newobj",
					"numinlets" : 1,
					"numoutlets" : 2,
					"outlettype" : [ "", "" ],
					"patching_rect" : [ 345.0, 365.0, 168.0, 18.0 ],
					"text" : "jit.phys.body @name FOO1"
				}

			}
, 			{
				"box" : 				{
					"fontname" : "Anonymous Pro",
					"fontsize" : 12.0,
					"frgb" : 0.0,
					"id" : "obj-17",
					"maxclass" : "comment",
					"numinlets" : 1,
					"numoutlets" : 0,
					"patching_rect" : [ 45.0, 15.0, 150.0, 18.0 ],
					"text" : "OpenGL Section"
				}

			}
, 			{
				"box" : 				{
					"fontname" : "Anonymous Pro",
					"fontsize" : 12.0,
					"id" : "obj-15",
					"maxclass" : "newobj",
					"numinlets" : 1,
					"numoutlets" : 2,
					"outlettype" : [ "jit_matrix", "" ],
					"patching_rect" : [ 30.0, 560.0, 240.0, 18.0 ],
					"text" : "jit.gl.gridshape @lighting_enable 1"
				}

			}
, 			{
				"box" : 				{
					"id" : "obj-13",
					"maxclass" : "jit.pwindow",
					"name" : "FOO",
					"numinlets" : 1,
					"numoutlets" : 2,
					"outlettype" : [ "", "" ],
					"patching_rect" : [ 30.0, 295.0, 255.0, 255.0 ]
				}

			}
, 			{
				"box" : 				{
					"fontname" : "Anonymous Pro",
					"fontsize" : 12.0,
					"id" : "obj-9",
					"maxclass" : "message",
					"numinlets" : 2,
					"numoutlets" : 1,
					"outlettype" : [ "" ],
					"patching_rect" : [ 120.0, 50.0, 43.0, 16.0 ],
					"text" : "reset"
				}

			}
, 			{
				"box" : 				{
					"fontname" : "Anonymous Pro",
					"fontsize" : 12.0,
					"id" : "obj-7",
					"maxclass" : "newobj",
					"numinlets" : 1,
					"numoutlets" : 2,
					"outlettype" : [ "", "" ],
					"patching_rect" : [ 120.0, 180.0, 96.0, 18.0 ],
					"text" : "jit.gl.handle"
				}

			}
, 			{
				"box" : 				{
					"fontname" : "Anonymous Pro",
					"fontsize" : 12.0,
					"id" : "obj-6",
					"maxclass" : "newobj",
					"numinlets" : 1,
					"numoutlets" : 2,
					"outlettype" : [ "bang", "erase" ],
					"patching_rect" : [ 45.0, 175.0, 69.0, 18.0 ],
					"text" : "t b erase"
				}

			}
, 			{
				"box" : 				{
					"fontname" : "Anonymous Pro",
					"fontsize" : 12.0,
					"id" : "obj-5",
					"maxclass" : "newobj",
					"numinlets" : 1,
					"numoutlets" : 2,
					"outlettype" : [ "bang", "" ],
					"patching_rect" : [ 45.0, 225.0, 122.0, 18.0 ],
					"text" : "jit.gl.render FOO"
				}

			}
, 			{
				"box" : 				{
					"fontname" : "Anonymous Pro",
					"fontsize" : 12.0,
					"id" : "obj-4",
					"maxclass" : "newobj",
					"numinlets" : 2,
					"numoutlets" : 1,
					"outlettype" : [ "bang" ],
					"patching_rect" : [ 45.0, 155.0, 69.0, 18.0 ],
					"text" : "qmetro 15"
				}

			}
, 			{
				"box" : 				{
					"id" : "obj-3",
					"maxclass" : "toggle",
					"numinlets" : 1,
					"numoutlets" : 1,
					"outlettype" : [ "int" ],
					"parameter_enable" : 0,
					"patching_rect" : [ 45.0, 90.0, 20.0, 20.0 ]
				}

			}
, 			{
				"box" : 				{
					"attr" : "enable",
					"fontname" : "Anonymous Pro",
					"fontsize" : 12.0,
					"id" : "obj-10",
					"maxclass" : "attrui",
					"numinlets" : 1,
					"numoutlets" : 1,
					"outlettype" : [ "" ],
					"patching_rect" : [ 150.0, 140.0, 150.0, 18.0 ]
				}

			}
, 			{
				"box" : 				{
					"attr" : "name",
					"fontname" : "Anonymous Pro",
					"fontsize" : 12.0,
					"id" : "obj-11",
					"maxclass" : "attrui",
					"numinlets" : 1,
					"numoutlets" : 1,
					"outlettype" : [ "" ],
					"patching_rect" : [ 30.0, 270.0, 150.0, 18.0 ]
				}

			}
, 			{
				"box" : 				{
					"attr" : "worldbox",
					"fontname" : "Anonymous Pro",
					"fontsize" : 12.0,
					"id" : "obj-18",
					"maxclass" : "attrui",
					"numinlets" : 1,
					"numoutlets" : 1,
					"outlettype" : [ "" ],
					"patching_rect" : [ 375.0, 120.0, 150.0, 18.0 ]
				}

			}
, 			{
				"box" : 				{
					"attr" : "enable",
					"fontname" : "Anonymous Pro",
					"fontsize" : 12.0,
					"id" : "obj-20",
					"maxclass" : "attrui",
					"numinlets" : 1,
					"numoutlets" : 1,
					"outlettype" : [ "" ],
					"patching_rect" : [ 345.0, 230.0, 150.0, 18.0 ]
				}

			}
, 			{
				"box" : 				{
					"attr" : "enable",
					"fontname" : "Anonymous Pro",
					"fontsize" : 12.0,
					"id" : "obj-26",
					"maxclass" : "attrui",
					"numinlets" : 1,
					"numoutlets" : 1,
					"outlettype" : [ "" ],
					"patching_rect" : [ 345.0, 290.0, 150.0, 18.0 ]
				}

			}
, 			{
				"box" : 				{
					"attr" : "position1",
					"fontname" : "Anonymous Pro",
					"fontsize" : 12.0,
					"id" : "obj-34",
					"maxclass" : "attrui",
					"numinlets" : 1,
					"numoutlets" : 1,
					"outlettype" : [ "" ],
					"patching_rect" : [ 750.0, 15.0, 210.0, 18.0 ]
				}

			}
, 			{
				"box" : 				{
					"attr" : "position2",
					"fontname" : "Anonymous Pro",
					"fontsize" : 12.0,
					"id" : "obj-35",
					"maxclass" : "attrui",
					"numinlets" : 1,
					"numoutlets" : 1,
					"outlettype" : [ "" ],
					"patching_rect" : [ 810.0, 40.0, 195.0, 18.0 ]
				}

			}
, 			{
				"box" : 				{
					"attr" : "position",
					"fontname" : "Anonymous Pro",
					"fontsize" : 12.0,
					"id" : "obj-37",
					"maxclass" : "attrui",
					"numinlets" : 1,
					"numoutlets" : 1,
					"outlettype" : [ "" ],
					"patching_rect" : [ 90.0, 100.0, 210.0, 18.0 ]
				}

			}
, 			{
				"box" : 				{
					"attr" : "radius",
					"fontname" : "Anonymous Pro",
					"fontsize" : 12.0,
					"id" : "obj-38",
					"maxclass" : "attrui",
					"numinlets" : 1,
					"numoutlets" : 1,
					"outlettype" : [ "" ],
					"patching_rect" : [ 150.0, 80.0, 150.0, 18.0 ]
				}

			}
, 			{
				"box" : 				{
					"attr" : "gravity",
					"fontname" : "Anonymous Pro",
					"fontsize" : 12.0,
					"id" : "obj-49",
					"maxclass" : "attrui",
					"numinlets" : 1,
					"numoutlets" : 1,
					"outlettype" : [ "" ],
					"patching_rect" : [ 360.0, 85.0, 225.0, 18.0 ]
				}

			}
, 			{
				"box" : 				{
					"attr" : "restitution",
					"fontname" : "Anonymous Pro",
					"fontsize" : 12.0,
					"id" : "obj-50",
					"maxclass" : "attrui",
					"numinlets" : 1,
					"numoutlets" : 1,
					"outlettype" : [ "" ],
					"patching_rect" : [ 945.0, 75.0, 150.0, 18.0 ]
				}

			}
, 			{
				"box" : 				{
					"attr" : "damping",
					"fontname" : "Anonymous Pro",
					"fontsize" : 12.0,
					"id" : "obj-52",
					"maxclass" : "attrui",
					"numinlets" : 1,
					"numoutlets" : 1,
					"outlettype" : [ "" ],
					"patching_rect" : [ 1005.0, 115.0, 180.0, 18.0 ]
				}

			}
, 			{
				"box" : 				{
					"attr" : "collisions",
					"fontname" : "Anonymous Pro",
					"fontsize" : 12.0,
					"id" : "obj-53",
					"maxclass" : "attrui",
					"numinlets" : 1,
					"numoutlets" : 1,
					"outlettype" : [ "" ],
					"patching_rect" : [ 810.0, 485.0, 150.0, 18.0 ]
				}

			}
, 			{
				"box" : 				{
					"bgcolor" : [ 0.701961, 0.701961, 0.701961, 1.0 ],
					"border" : 1,
					"bordercolor" : [ 1.0, 1.0, 1.0, 1.0 ],
					"id" : "obj-66",
					"maxclass" : "panel",
					"numinlets" : 1,
					"numoutlets" : 0,
					"patching_rect" : [ 15.0, 10.0, 300.0, 630.0 ]
				}

			}
, 			{
				"box" : 				{
					"bgcolor" : [ 0.701961, 0.701961, 0.701961, 1.0 ],
					"border" : 1,
					"bordercolor" : [ 1.0, 1.0, 1.0, 1.0 ],
					"id" : "obj-67",
					"maxclass" : "panel",
					"numinlets" : 1,
					"numoutlets" : 0,
					"patching_rect" : [ 330.0, 10.0, 270.0, 380.0 ]
				}

			}
, 			{
				"box" : 				{
					"bgcolor" : [ 0.701961, 0.701961, 0.701961, 1.0 ],
					"border" : 1,
					"bordercolor" : [ 1.0, 1.0, 1.0, 1.0 ],
					"id" : "obj-68",
					"maxclass" : "panel",
					"numinlets" : 1,
					"numoutlets" : 0,
					"patching_rect" : [ 330.0, 395.0, 270.0, 240.0 ]
				}

			}
 ],
		"lines" : [ 			{
				"patchline" : 				{
					"destination" : [ "obj-15", 0 ],
					"disabled" : 0,
					"hidden" : 0,
					"source" : [ "obj-1", 0 ]
				}

			}
, 			{
				"patchline" : 				{
					"destination" : [ "obj-7", 0 ],
					"disabled" : 0,
					"hidden" : 0,
					"source" : [ "obj-10", 0 ]
				}

			}
, 			{
				"patchline" : 				{
					"destination" : [ "obj-13", 0 ],
					"disabled" : 0,
					"hidden" : 0,
					"source" : [ "obj-11", 0 ]
				}

			}
, 			{
				"patchline" : 				{
					"destination" : [ "obj-21", 0 ],
					"disabled" : 0,
					"hidden" : 0,
					"source" : [ "obj-14", 0 ]
				}

			}
, 			{
				"patchline" : 				{
					"destination" : [ "obj-63", 0 ],
					"disabled" : 0,
					"hidden" : 0,
					"source" : [ "obj-14", 0 ]
				}

			}
, 			{
				"patchline" : 				{
					"destination" : [ "obj-2", 0 ],
					"disabled" : 0,
					"hidden" : 0,
					"source" : [ "obj-16", 0 ]
				}

			}
, 			{
				"patchline" : 				{
					"destination" : [ "obj-2", 0 ],
					"disabled" : 0,
					"hidden" : 0,
					"source" : [ "obj-18", 0 ]
				}

			}
, 			{
				"patchline" : 				{
					"destination" : [ "obj-5", 0 ],
					"disabled" : 0,
					"hidden" : 0,
					"source" : [ "obj-2", 0 ]
				}

			}
, 			{
				"patchline" : 				{
					"destination" : [ "obj-19", 0 ],
					"disabled" : 0,
					"hidden" : 0,
					"source" : [ "obj-20", 0 ]
				}

			}
, 			{
				"patchline" : 				{
					"destination" : [ "obj-14", 1 ],
					"disabled" : 0,
					"hidden" : 0,
					"source" : [ "obj-21", 0 ]
				}

			}
, 			{
				"patchline" : 				{
					"destination" : [ "obj-25", 0 ],
					"disabled" : 0,
					"hidden" : 0,
					"source" : [ "obj-26", 0 ]
				}

			}
, 			{
				"patchline" : 				{
					"destination" : [ "obj-1", 0 ],
					"disabled" : 0,
					"hidden" : 0,
					"source" : [ "obj-29", 0 ]
				}

			}
, 			{
				"patchline" : 				{
					"destination" : [ "obj-4", 0 ],
					"disabled" : 0,
					"hidden" : 0,
					"source" : [ "obj-3", 0 ]
				}

			}
, 			{
				"patchline" : 				{
					"destination" : [ "obj-14", 1 ],
					"disabled" : 0,
					"hidden" : 0,
					"source" : [ "obj-30", 0 ]
				}

			}
, 			{
				"patchline" : 				{
					"destination" : [ "obj-29", 0 ],
					"disabled" : 0,
					"hidden" : 0,
					"source" : [ "obj-34", 0 ]
				}

			}
, 			{
				"patchline" : 				{
					"destination" : [ "obj-29", 0 ],
					"disabled" : 0,
					"hidden" : 0,
					"source" : [ "obj-35", 0 ]
				}

			}
, 			{
				"patchline" : 				{
					"destination" : [ "obj-7", 0 ],
					"disabled" : 0,
					"hidden" : 0,
					"source" : [ "obj-37", 0 ]
				}

			}
, 			{
				"patchline" : 				{
					"destination" : [ "obj-7", 0 ],
					"disabled" : 0,
					"hidden" : 0,
					"source" : [ "obj-38", 0 ]
				}

			}
, 			{
				"patchline" : 				{
					"destination" : [ "obj-6", 0 ],
					"disabled" : 0,
					"hidden" : 0,
					"source" : [ "obj-4", 0 ]
				}

			}
, 			{
				"patchline" : 				{
					"destination" : [ "obj-39", 0 ],
					"disabled" : 0,
					"hidden" : 0,
					"source" : [ "obj-40", 0 ]
				}

			}
, 			{
				"patchline" : 				{
					"destination" : [ "obj-40", 0 ],
					"disabled" : 0,
					"hidden" : 0,
					"source" : [ "obj-41", 0 ]
				}

			}
, 			{
				"patchline" : 				{
					"destination" : [ "obj-41", 0 ],
					"disabled" : 0,
					"hidden" : 0,
					"source" : [ "obj-42", 0 ]
				}

			}
, 			{
				"patchline" : 				{
					"destination" : [ "obj-41", 0 ],
					"disabled" : 0,
					"hidden" : 0,
					"source" : [ "obj-43", 0 ]
				}

			}
, 			{
				"patchline" : 				{
					"destination" : [ "obj-47", 0 ],
					"disabled" : 0,
					"hidden" : 0,
					"source" : [ "obj-44", 0 ]
				}

			}
, 			{
				"patchline" : 				{
					"destination" : [ "obj-44", 0 ],
					"disabled" : 0,
					"hidden" : 0,
					"source" : [ "obj-45", 0 ]
				}

			}
, 			{
				"patchline" : 				{
					"destination" : [ "obj-44", 0 ],
					"disabled" : 0,
					"hidden" : 0,
					"source" : [ "obj-46", 0 ]
				}

			}
, 			{
				"patchline" : 				{
					"destination" : [ "obj-48", 0 ],
					"disabled" : 0,
					"hidden" : 0,
					"source" : [ "obj-47", 0 ]
				}

			}
, 			{
				"patchline" : 				{
					"destination" : [ "obj-55", 0 ],
					"disabled" : 0,
					"hidden" : 0,
					"source" : [ "obj-47", 1 ]
				}

			}
, 			{
				"patchline" : 				{
					"destination" : [ "obj-2", 0 ],
					"disabled" : 0,
					"hidden" : 0,
					"source" : [ "obj-49", 0 ]
				}

			}
, 			{
				"patchline" : 				{
					"destination" : [ "obj-1", 0 ],
					"disabled" : 0,
					"hidden" : 0,
					"source" : [ "obj-50", 0 ]
				}

			}
, 			{
				"patchline" : 				{
					"destination" : [ "obj-40", 0 ],
					"disabled" : 0,
					"hidden" : 0,
					"source" : [ "obj-50", 0 ]
				}

			}
, 			{
				"patchline" : 				{
					"destination" : [ "obj-47", 0 ],
					"disabled" : 0,
					"hidden" : 0,
					"source" : [ "obj-50", 0 ]
				}

			}
, 			{
				"patchline" : 				{
					"destination" : [ "obj-1", 0 ],
					"disabled" : 0,
					"hidden" : 0,
					"source" : [ "obj-52", 0 ]
				}

			}
, 			{
				"patchline" : 				{
					"destination" : [ "obj-40", 0 ],
					"disabled" : 0,
					"hidden" : 0,
					"source" : [ "obj-52", 0 ]
				}

			}
, 			{
				"patchline" : 				{
					"destination" : [ "obj-47", 0 ],
					"disabled" : 0,
					"hidden" : 0,
					"source" : [ "obj-52", 0 ]
				}

			}
, 			{
				"patchline" : 				{
					"destination" : [ "obj-47", 0 ],
					"disabled" : 0,
					"hidden" : 0,
					"source" : [ "obj-53", 0 ]
				}

			}
, 			{
				"patchline" : 				{
					"destination" : [ "obj-14", 0 ],
					"disabled" : 0,
					"hidden" : 0,
					"source" : [ "obj-55", 0 ]
				}

			}
, 			{
				"patchline" : 				{
					"destination" : [ "obj-27", 0 ],
					"disabled" : 0,
					"hidden" : 0,
					"source" : [ "obj-55", 0 ]
				}

			}
, 			{
				"patchline" : 				{
					"destination" : [ "obj-59", 0 ],
					"disabled" : 0,
					"hidden" : 0,
					"source" : [ "obj-57", 0 ]
				}

			}
, 			{
				"patchline" : 				{
					"destination" : [ "obj-61", 0 ],
					"disabled" : 0,
					"hidden" : 0,
					"source" : [ "obj-59", 0 ]
				}

			}
, 			{
				"patchline" : 				{
					"destination" : [ "obj-5", 0 ],
					"disabled" : 0,
					"hidden" : 0,
					"source" : [ "obj-6", 1 ]
				}

			}
, 			{
				"patchline" : 				{
					"destination" : [ "obj-5", 0 ],
					"disabled" : 0,
					"hidden" : 0,
					"source" : [ "obj-6", 0 ]
				}

			}
, 			{
				"patchline" : 				{
					"destination" : [ "obj-64", 0 ],
					"disabled" : 0,
					"hidden" : 0,
					"source" : [ "obj-60", 0 ]
				}

			}
, 			{
				"patchline" : 				{
					"destination" : [ "obj-65", 1 ],
					"disabled" : 0,
					"hidden" : 0,
					"source" : [ "obj-60", 0 ]
				}

			}
, 			{
				"patchline" : 				{
					"destination" : [ "obj-65", 0 ],
					"disabled" : 0,
					"hidden" : 0,
					"source" : [ "obj-60", 0 ]
				}

			}
, 			{
				"patchline" : 				{
					"destination" : [ "obj-8", 0 ],
					"disabled" : 0,
					"hidden" : 0,
					"source" : [ "obj-63", 0 ]
				}

			}
, 			{
				"patchline" : 				{
					"destination" : [ "obj-5", 0 ],
					"disabled" : 0,
					"hidden" : 0,
					"source" : [ "obj-7", 0 ]
				}

			}
, 			{
				"patchline" : 				{
					"destination" : [ "obj-60", 0 ],
					"disabled" : 0,
					"hidden" : 0,
					"source" : [ "obj-8", 0 ]
				}

			}
, 			{
				"patchline" : 				{
					"destination" : [ "obj-7", 0 ],
					"disabled" : 0,
					"hidden" : 0,
					"source" : [ "obj-9", 0 ]
				}

			}
 ],
		"dependency_cache" : [ 			{
				"name" : "simpleFM~.maxpat",
				"bootpath" : "/Applications/Max 6.1/patches/docs/tutorial-patchers/msp-tut",
				"patcherrelativepath" : "../../../../../../../../Applications/Max 6.1/patches/docs/tutorial-patchers/msp-tut",
				"type" : "JSON",
				"implicit" : 1
			}
 ]
	}

}
